<?xml version="1.0" encoding="UTF-8" standalone="no"?>
<!-- Created with Inkscape (http://www.inkscape.org/) -->

<svg
   xmlns:dc="http://purl.org/dc/elements/1.1/"
   xmlns:cc="http://creativecommons.org/ns#"
   xmlns:rdf="http://www.w3.org/1999/02/22-rdf-syntax-ns#"
   xmlns:svg="http://www.w3.org/2000/svg"
   xmlns="http://www.w3.org/2000/svg"
   xmlns:sodipodi="http://sodipodi.sourceforge.net/DTD/sodipodi-0.dtd"
   xmlns:inkscape="http://www.inkscape.org/namespaces/inkscape"
   version="1.1"
   id="svg2"
   width="1066.6667"
   height="1066.6667"
   viewBox="0 0 1066.6667 1066.6667"
   sodipodi:docname="logoBold_fb.svg"
   inkscape:version="0.92.3 (2405546, 2018-03-11)">
  <metadata
     id="metadata8">
    <rdf:RDF>
      <cc:Work
         rdf:about="">
        <dc:format>image/svg+xml</dc:format>
        <dc:type
           rdf:resource="http://purl.org/dc/dcmitype/StillImage" />
        <dc:title></dc:title>
      </cc:Work>
    </rdf:RDF>
  </metadata>
  <defs
     id="defs6" />
  <sodipodi:namedview
     pagecolor="#ffffff"
     bordercolor="#666666"
     borderopacity="1"
     objecttolerance="10"
     gridtolerance="10"
     guidetolerance="10"
     inkscape:pageopacity="0"
     inkscape:pageshadow="2"
     inkscape:window-width="1366"
     inkscape:window-height="703"
     id="namedview4"
     showgrid="false"
     inkscape:zoom="0.125"
     inkscape:cx="-523.1924"
     inkscape:cy="1415.9972"
     inkscape:window-x="0"
     inkscape:window-y="0"
     inkscape:window-maximized="1"
     inkscape:current-layer="svg2" />
  <rect
     style="fill:#ffffff;fill-opacity:1;stroke:#000000;stroke-width:12;stroke-linecap:round;stroke-linejoin:round;stroke-miterlimit:4;stroke-dasharray:none;stroke-opacity:1"
     id="rect6302"
     width="1432"
     height="1360"
     x="-120"
     y="-109.33325" />
  <g
     id="g4537"
     transform="matrix(2.4460105,0,0,2.9228349,-810.2828,-961.26935)">
    <path
       sodipodi:nodetypes="ccccccccccccccccccccccccccc"
       inkscape:connector-curvature="0"
       id="path3715"
       d="m 422.14962,504.06855 c -1.10459,-8.98823 0.29474,-19.73497 -0.23403,-29.43389 -7.1332,5.84154 -12.02795,19.83229 -11.63383,40.72846 1.24821,11.48543 -1.5137,30.93046 23.17073,32.35912 h 47.93945 c 16.34855,-2.97656 23.91388,-13.34952 25.9672,-28.36417 0.61609,-14.78133 -4.44568,-29.56266 -7.19092,-44.34399 20.19294,30.84791 31.71039,69.40737 45.59095,105.86628 15.55434,-37.98367 28.25799,-86.81925 46.29299,-107.86376 -7.2847,32.39178 -6.04646,44.93382 -4.79394,53.13289 1.12655,7.7654 12.11539,22.566 21.57275,24.36922 l 59.92431,-0.79899 c 20.48824,-6.78768 20.36385,-24.69647 20.37426,-35.1556 -1.44707,-16.28628 -2.16009,-33.27469 -11.98486,-41.54752 -1.75831,6.24451 -2.94228,13.49413 -3.19596,22.37175 0.14514,27.32311 -16.46201,30.72603 -31.56014,32.35912 -40.42245,4.53091 -44.13316,-21.46099 -40.34903,-38.75105 5.51158,-19.70365 11.74663,-39.44986 23.57022,-59.52481 2.38397,-4.85085 4.15677,-10.06328 3.93482,-14.16635 -6.11026,1.09406 -16.69222,6.64295 -20.61375,9.7719 -39.90685,35.59754 -53.37084,77.29887 -62.82065,120.24811 -7.6512,-32.9976 -23.57128,-91.02188 -69.5122,-124.64256 -3.37409,-2.4684 -6.04527,-4.47117 -13.7746,-6.13625 1.30073,5.37566 3.34438,10.29498 6.58369,15.72414 7.27845,12.91204 18.3144,41.39817 22.37174,63.51976 3.1621,18.62702 2.85033,35.60253 -39.15055,32.75863 -9.48194,-1.16526 -30.03203,-0.41757 -30.47865,-22.48044 z"
       style="fill:#000000;stroke:#000000;stroke-width:4.48797;stroke-linecap:round;stroke-linejoin:round;stroke-miterlimit:4;stroke-dasharray:none;stroke-opacity:1;fill-opacity:1" />
    <path
       sodipodi:nodetypes="cccccccc"
       inkscape:connector-curvature="0"
       id="path22"
       d="m 445.98402,332.2037 0.0485,14.29676 c -111.06253,33.74702 39.18861,110.22297 -89.94722,164.98543 117.98399,46.68353 -9.67966,137.61321 89.85313,166.71834 l 0.0685,12.37108 C 290.94475,649.00044 446.04421,546.65574 333.77618,518.51102 V 505.48883 C 446.84816,483.88312 288.66836,376.90471 445.98402,332.2037 Z"
       style="fill:#000000;fill-opacity:1;stroke:#000000;stroke-width:5;stroke-linecap:butt;stroke-linejoin:miter;stroke-miterlimit:4;stroke-dasharray:none;stroke-opacity:1" />
    <path
       sodipodi:nodetypes="cccccccc"
       inkscape:connector-curvature="0"
       id="path22-3"
       d="m 652.6283,332.20371 -0.0485,14.29675 c 111.06253,33.74702 -39.18861,110.22298 89.94722,164.98544 -117.98399,46.68353 9.67966,137.61321 -89.85313,166.71834 l -0.0685,12.37108 C 807.66757,649.00045 652.56811,546.65575 764.83614,518.51103 V 505.48884 C 651.76416,483.88313 809.94396,376.90471 652.6283,332.20371 Z"
       style="fill:#000000;fill-opacity:1;stroke:#000000;stroke-width:5;stroke-linecap:butt;stroke-linejoin:miter;stroke-miterlimit:4;stroke-dasharray:none;stroke-opacity:1" />
  </g>
</svg>
